<?xml version="1.0" encoding="UTF-8"?>
<!DOCTYPE svg PUBLIC "-//W3C//DTD SVG 1.0//EN" "http://www.w3.org/TR/2001/REC-SVG-20010904/DTD/svg10.dtd">
<!-- Creator: CorelDRAW X7 -->
<svg xmlns="http://www.w3.org/2000/svg" xml:space="preserve" width="6mm" height="5.0945mm" version="1.0" style="shape-rendering:geometricPrecision; text-rendering:geometricPrecision; image-rendering:optimizeQuality; fill-rule:evenodd; clip-rule:evenodd"
viewBox="0 0 183 156"
 xmlns:xlink="http://www.w3.org/1999/xlink">
 <defs>
  <style type="text/css">
   <![CDATA[
    .fil0 {fill:#007336}
   ]]>
  </style>
 </defs>
 <g id="Слой_x0020_1">
  <metadata id="CorelCorpID_0Corel-Layer"/>
  <g id="XMLID_54_">
   <path id="XMLID_812_" class="fil0" d="M99 68c8,-2 17,-6 26,-8 4,-1 5,-3 5,-7 0,-9 0,-18 0,-27 2,-1 3,1 4,2 1,2 2,3 3,5 5,6 8,16 14,17 6,2 14,-3 21,-6 4,0 7,-2 11,-2 -6,8 -11,16 -16,23 -3,3 -3,6 0,9 5,7 10,14 16,23 -8,-1 -15,-4 -22,-7 -10,-3 -10,-3 -17,6 -4,6 -8,12 -14,17 0,-9 0,-19 0,-28 0,-4 -1,-5 -5,-6 -9,-3 -18,-6 -26,-9 0,0 0,-1 0,-2z"/>
   <path id="XMLID_61_" class="fil0" d="M103 144c-38,0 -69,-31 -69,-69 0,-39 31,-70 69,-70 1,0 3,0 4,1 -9,-4 -19,-6 -29,-6 -43,0 -78,35 -78,78 0,43 35,78 78,78 17,0 33,-6 46,-15 -7,2 -14,3 -21,3z"/>
  </g>
 </g>
</svg>
